<svg width="20" height="20" viewBox="0 0 20 20" fill="black"
    xmlns="http://www.w3.org/2000/svg">
    <path d="M9.99991 7.29166C8.50414 7.29166 7.29157 8.50423 7.29157 10C7.29157 11.4958 8.50414 12.7083 9.99991 12.7083C11.4957 12.7083 12.7082 11.4958 12.7082 10C12.7082 8.50423 11.4957 7.29166 9.99991 7.29166Z" fill="black"/>
    <path fill-rule="evenodd" clip-rule="evenodd" d="M5.64119 2.56789C8.51462 2.24674 11.4852 2.24674 14.3586 2.56789C15.9406 2.7447 17.2166 3.99118 17.4023 5.57872C17.7459 8.51623 17.7459 11.4838 17.4023 14.4213C17.2166 16.0088 15.9406 17.2553 14.3586 17.4321C11.4852 17.7533 8.51462 17.7533 5.64119 17.4321C4.05919 17.2553 2.7832 16.0088 2.59752 14.4213C2.25395 11.4838 2.25395 8.51623 2.59752 5.57872C2.7832 3.99118 4.05919 2.7447 5.64119 2.56789ZM14.1666 5C13.7063 5 13.3332 5.37309 13.3332 5.83333C13.3332 6.29357 13.7063 6.66666 14.1666 6.66666C14.6268 6.66666 14.9999 6.29357 14.9999 5.83333C14.9999 5.37309 14.6268 5 14.1666 5ZM6.04158 10C6.04158 7.81387 7.81378 6.04166 9.99991 6.04166C12.186 6.04166 13.9582 7.81387 13.9582 10C13.9582 12.1861 12.186 13.9583 9.99991 13.9583C7.81378 13.9583 6.04158 12.1861 6.04158 10Z" fill="black"/>
</svg>
