<svg width="24" height="24" viewBox="0 0 24 24" fill="black"
    xmlns="http://www.w3.org/2000/svg">
    <path d="M11.9999 8.75C10.205 8.75 8.74994 10.2051 8.74994 12C8.74994 13.7949 10.205 15.25 11.9999 15.25C13.7949 15.25 15.2499 13.7949 15.2499 12C15.2499 10.2051 13.7949 8.75 11.9999 8.75Z" fill="black"/>
    <path fill-rule="evenodd" clip-rule="evenodd" d="M6.76948 3.08147C10.2176 2.69609 13.7823 2.69609 17.2304 3.08147C19.1288 3.29364 20.66 4.78942 20.8828 6.69447C21.2951 10.2195 21.2951 13.7805 20.8828 17.3055C20.66 19.2106 19.1288 20.7064 17.2304 20.9185C13.7823 21.3039 10.2176 21.3039 6.76948 20.9185C4.87108 20.7064 3.33989 19.2106 3.11707 17.3055C2.70479 13.7805 2.70479 10.2195 3.11707 6.69447C3.33989 4.78942 4.87108 3.29364 6.76948 3.08147ZM16.9999 6C16.4477 6 15.9999 6.44772 15.9999 7C15.9999 7.55228 16.4477 8 16.9999 8C17.5522 8 17.9999 7.55228 17.9999 7C17.9999 6.44772 17.5522 6 16.9999 6ZM7.24994 12C7.24994 9.37665 9.37659 7.25 11.9999 7.25C14.6233 7.25 16.7499 9.37665 16.7499 12C16.7499 14.6234 14.6233 16.75 11.9999 16.75C9.37659 16.75 7.24994 14.6234 7.24994 12Z" fill="black"/>
</svg>
