<svg width="24" height="24" viewBox="0 0 24 24" fill="black"
    xmlns="http://www.w3.org/2000/svg">
    <path d="M5.00029 9.8605C6.91669 14.0344 10.3267 17.3529 14.5662 19.1519L15.2458 19.4547C16.8006 20.1474 18.6284 19.6211 19.5767 18.2076L20.4648 16.8839C20.7536 16.4536 20.6656 15.8739 20.2623 15.5485L17.2504 13.1187C16.8081 12.7618 16.1575 12.8449 15.8191 13.3016L14.8874 14.5589C12.4966 13.3795 10.5555 11.4385 9.37619 9.04765L10.6334 8.11593C11.0901 7.77751 11.1732 7.12699 10.8163 6.68461L8.38647 3.67267C8.06112 3.26939 7.48162 3.18142 7.05125 3.46999L5.71841 4.36368C4.29607 5.31739 3.77269 7.16024 4.48142 8.71919L4.99951 9.85881L5.00029 9.8605Z" fill="black"/>
</svg>
