<svg width="20" height="20" viewBox="0 0 20 20" fill="black"
    xmlns="http://www.w3.org/2000/svg">
    <path d="M7.29167 8.33333C7.29167 6.83756 8.50423 5.625 10 5.625C11.4958 5.625 12.7083 6.83756 12.7083 8.33333C12.7083 9.8291 11.4958 11.0417 10 11.0417C8.50423 11.0417 7.29167 9.8291 7.29167 8.33333Z" fill="black"/>
    <path fill-rule="evenodd" clip-rule="evenodd" d="M3.14462 7.39782C3.43098 3.92371 6.33415 1.25 9.82005 1.25H10.18C13.6659 1.25 16.5691 3.92371 16.8554 7.39782C17.0096 9.26832 16.4318 11.1257 15.2438 12.5786L11.2496 17.4634C10.6037 18.2532 9.3963 18.2532 8.75049 17.4634L4.75627 12.5786C3.56822 11.1257 2.99044 9.26832 3.14462 7.39782ZM10 4.375C7.81387 4.375 6.04167 6.14721 6.04167 8.33333C6.04167 10.5195 7.81387 12.2917 10 12.2917C12.1861 12.2917 13.9583 10.5195 13.9583 8.33333C13.9583 6.14721 12.1861 4.375 10 4.375Z" fill="black"/>
</svg>
