<svg width="20" height="20" viewBox="0 0 20 20" fill="none" xmlns="http://www.w3.org/2000/svg">
<path fill-rule="evenodd" clip-rule="evenodd" d="M6.0974 3.14063C8.67036 2.85307 11.3299 2.85307 13.9028 3.14063C15.4248 3.31074 16.6539 4.5096 16.8329 6.04041C17.1406 8.67117 17.1406 11.3288 16.8329 13.9596C16.6539 15.4904 15.4248 16.6893 13.9028 16.8594C11.3299 17.1469 8.67036 17.1469 6.0974 16.8594C4.57541 16.6893 3.34633 15.4904 3.16729 13.9596C2.8596 11.3288 2.8596 8.67117 3.16729 6.04041C3.34633 4.5096 4.57542 3.31074 6.0974 3.14063ZM10.8335 6.66667C10.8335 7.12691 10.4604 7.5 10.0001 7.5C9.53988 7.5 9.16679 7.12691 9.16679 6.66667C9.16679 6.20643 9.53988 5.83334 10.0001 5.83334C10.4604 5.83334 10.8335 6.20643 10.8335 6.66667ZM10.0001 8.95834C10.3453 8.95834 10.6251 9.23816 10.6251 9.58334V13.75C10.6251 14.0952 10.3453 14.375 10.0001 14.375C9.65494 14.375 9.37512 14.0952 9.37512 13.75V9.58334C9.37512 9.23816 9.65494 8.95834 10.0001 8.95834Z" fill="black"/>
</svg>
